
    <svg width="624" height="388" viewBox="0 0 624 388" fill="none" xmlns="http://www.w3.org/2000/svg">
    <rect width="624" height="388" rx="34" fill="url(#card-background)"/>
    <path fill-rule="evenodd" clip-rule="evenodd" d="M320.496 29.5028C317.76 24.4894 319.519 18.1622 324.421 15.3665C335.368 9.12698 346.87 3.98831 358.74 0L482.088 0C501.591 6.53501 520.109 16.1274 536.713 28.4675C560.849 46.4138 579.017 66.5409 590.71 88.2918C593.415 93.321 591.615 99.6429 586.692 102.397C585.139 103.274 583.457 103.684 581.805 103.684C578.215 103.684 574.738 101.74 572.881 98.2976C562.639 79.2425 546.446 61.4014 524.748 45.2734C494.713 22.9444 457.707 10.6526 420.537 10.6526C390.377 10.6526 360.573 18.5564 334.334 33.5124C329.431 36.3082 323.233 34.5109 320.496 29.5028ZM607 164.387C606.993 158.794 602.646 154.177 597.14 154.007C597.016 154.007 596.898 154.002 596.78 154.002C591.26 154.002 586.831 158.469 586.661 164.081C586.451 171.307 585.813 178.717 584.794 186.1C580.453 217.4 568.858 249.277 551.276 278.275C551.255 278.309 551.233 278.343 551.212 278.376C551.187 278.415 551.162 278.454 551.137 278.491C549.389 281.546 547.497 284.596 545.501 287.815L545.391 287.992C536.878 301.681 527.238 317.21 528.334 335.088C530.318 361.44 537.214 375.132 545.778 388H569.802C569.505 386.749 568.972 385.535 568.194 384.423L567.505 383.441L567.5 383.433C557.297 368.849 550.55 359.205 548.627 333.648C547.953 322.649 555.046 311.219 562.562 299.127C564.589 295.869 566.682 292.501 568.627 289.116C587.644 257.717 600.205 223.107 604.933 189.017C606.064 180.877 606.754 172.7 606.996 164.712C606.998 164.612 607 164.513 607 164.414C607 164.405 607 164.396 607 164.387ZM514.559 388C507.051 377.27 500.19 366.751 493.843 355.757C491.95 352.472 488.561 350.643 485.073 350.643C483.319 350.643 481.544 351.106 479.919 352.083C475.073 355 473.468 361.364 476.323 366.309C480.555 373.645 485.107 380.906 489.8 388H514.559ZM458.297 388C440.253 358.55 425.467 326.575 419.796 290.872C418.988 285.764 414.678 282.138 409.765 282.138C409.225 282.138 408.68 282.185 408.129 282.274C402.584 283.194 398.819 288.528 399.719 294.198C405.156 328.437 418.501 359.732 434.621 388H458.297ZM398.76 388C385.35 374.093 373.942 367.94 364.925 363.077C363.603 362.368 362.327 361.674 361.082 360.985C344.676 351.844 326.652 354.281 310.73 356.435L310.692 356.44C305.651 357.128 300.882 357.775 296.371 358.037C272.868 358.826 271.953 352.162 271.196 346.345C270.888 343.838 269.592 336.565 261.912 302.548C260.826 297.745 256.649 294.487 252.02 294.487C251.264 294.487 250.487 294.576 249.715 294.755C244.242 296.043 240.832 301.624 242.092 307.215C249.612 340.533 250.831 347.485 251.022 349.009C252.771 362.425 259.473 380.098 297.184 378.806C297.223 378.803 297.263 378.802 297.303 378.8C297.341 378.799 297.38 378.798 297.42 378.795C302.704 378.486 308.106 377.753 313.324 377.046L313.367 377.04L313.371 377.039C327.459 375.132 340.765 373.33 351.345 379.231C352.601 379.93 353.889 380.624 355.218 381.341L355.429 381.454L355.456 381.469C359.059 383.413 362.807 385.435 366.775 388H398.76ZM323.984 77.9182C320.754 73.2201 321.854 66.7406 326.448 63.4404C351.283 45.5834 380.887 36.1505 411.324 36.1505C417.275 36.1505 423.258 36.5079 429.24 37.2383C434.816 37.9162 438.803 43.0873 438.139 48.7838C437.476 54.4856 432.388 58.5531 426.833 57.8752C395.223 54.0232 363.732 62.0425 338.156 80.4354C336.376 81.7124 334.334 82.3273 332.312 82.3273C329.113 82.3273 325.964 80.7928 323.984 77.9182ZM461.791 67.0979C456.586 64.9381 454.086 58.8842 456.2 53.5607C457.805 49.5248 461.606 47.0812 465.624 47.0812C466.899 47.0812 468.201 47.3282 469.451 47.8484C510.973 65.0852 543.586 100.962 556.682 143.802C558.354 149.278 555.365 155.105 550.005 156.824C548.997 157.139 547.979 157.297 546.97 157.297C542.639 157.297 538.627 154.443 537.264 150.003C525.957 113.017 497.748 82.0277 461.791 67.0979ZM251.31 114.528C251.934 112.41 258.341 90.6586 262.709 81.1396C264.437 77.3717 268.105 75.154 271.927 75.154C273.367 75.154 274.838 75.4746 276.227 76.142C281.32 78.5751 283.511 84.7551 281.129 89.9525C277.945 96.905 272.606 114.315 270.816 120.432C267.899 131.048 265.188 142.593 265.456 153.997C265.548 157.84 266.622 161.898 267.757 166.193L267.76 166.204C269.005 170.887 270.409 176.194 270.697 181.97C271.762 203.37 254.564 222.246 240.731 237.428L240.703 237.459C237.545 240.922 234.54 244.217 232.154 247.128C235.898 248.999 239.854 250.339 243.964 251.138C249.484 252.215 253.11 257.654 252.061 263.287C251.135 268.269 246.871 271.738 242.076 271.738C241.454 271.738 240.811 271.68 240.168 271.554C232.745 270.109 225.652 267.423 219.098 263.555C212.889 259.893 210.858 255.042 210.251 251.616C208.79 243.436 214.116 236.81 215.866 234.633L215.868 234.631C218.607 231.217 221.861 227.64 225.303 223.855L225.816 223.291C237.04 210.983 251.011 195.654 250.384 183.026C250.209 179.482 249.197 175.67 248.128 171.643L248.126 171.633L248.12 171.612C246.784 166.562 245.271 160.841 245.122 154.496C244.792 140.349 247.889 126.985 251.274 114.652C251.282 114.624 251.294 114.582 251.31 114.528ZM386.802 96.4058C385.851 90.7512 389.565 85.3752 395.11 84.403C400.748 83.4151 406.437 82.9316 412.111 82.9316C438.947 82.9316 465.557 93.7729 485.731 113.474C509.162 136.35 520.319 167.981 516.353 200.252C515.983 203.242 515.52 206.348 514.887 210.037C514.013 215.077 509.723 218.624 504.882 218.624C504.296 218.624 503.699 218.572 503.103 218.461C497.573 217.468 493.874 212.076 494.846 206.432C495.428 203.085 495.844 200.3 496.174 197.667C499.327 171.99 490.397 146.776 471.678 128.499C451.869 109.155 424.528 100.316 398.546 104.888C392.996 105.849 387.754 102.06 386.802 96.4058ZM353.696 100.836L355.892 99.6955C357.368 98.9282 358.942 98.5656 360.491 98.5656C364.194 98.5656 367.77 100.641 369.565 104.252C372.111 109.37 370.11 115.624 365.1 118.22L362.888 119.376C347.574 127.306 327.477 137.411 307.806 145.252C306.597 145.741 305.342 145.972 304.113 145.972C300.044 145.972 296.201 143.46 294.632 139.356C292.59 134.011 295.178 127.984 300.409 125.898C319.262 118.377 338.788 108.556 353.696 100.836ZM297.251 177.639C327.286 167.991 358.773 151.931 385.918 137.637C394.518 133.123 403.957 130.89 413.335 130.89C425.336 130.89 437.234 134.542 447.095 141.721C451.668 145.052 452.738 151.532 449.477 156.214C446.22 160.886 439.873 161.979 435.289 158.642C423.849 150.323 408.129 149.33 395.238 156.114C367.337 170.803 334.925 187.314 303.357 197.467C302.343 197.793 301.32 197.951 300.306 197.951C295.98 197.951 291.968 195.107 290.605 190.677C288.917 185.207 291.896 179.368 297.251 177.639ZM449.934 184.581C449.348 178.869 453.401 173.761 458.988 173.157C459.343 173.12 459.692 173.104 460.042 173.104C465.197 173.104 469.61 177.061 470.166 182.406C470.731 187.903 470.526 193.452 469.554 198.907C466.364 216.811 455.464 231.857 439.646 240.191C411.617 254.969 378.845 271.769 344.544 284.124C332.955 288.297 326.175 300.268 328.413 312.596C329.118 316.454 329.9 320.285 330.8 324.299C332.055 329.891 328.634 335.467 323.156 336.749C322.389 336.927 321.623 337.012 320.872 337.012C316.237 337.012 312.05 333.753 310.97 328.94C310.003 324.641 309.169 320.537 308.413 316.391C304.334 293.935 316.685 272.127 337.78 264.528C370.861 252.609 402.893 236.187 430.32 221.725C440.485 216.375 447.486 206.695 449.538 195.192C450.166 191.676 450.3 188.108 449.934 184.581ZM542.711 188.512C542.711 182.779 547.269 178.123 552.881 178.123H552.886C558.498 178.123 563.051 182.779 563.051 188.518C563.051 198.765 562.047 209.023 560.067 219.003C559.1 223.932 554.851 227.337 550.113 227.337C549.445 227.337 548.766 227.269 548.082 227.127C542.577 225.992 539.018 220.511 540.134 214.883C541.842 206.254 542.706 197.383 542.711 188.512ZM285.502 230.159C327.081 221.304 369.251 200.173 408.88 179.284C410.372 178.496 411.967 178.123 413.536 178.123C417.219 178.123 420.773 180.178 422.579 183.746C425.161 188.849 423.206 195.118 418.211 197.746C377.332 219.297 333.732 241.116 289.653 250.496C288.953 250.649 288.254 250.722 287.565 250.722C282.848 250.722 278.619 247.349 277.621 242.446C276.474 236.828 280.008 231.326 285.502 230.159ZM489.594 250.454C489.517 244.711 494.008 239.997 499.625 239.923C499.653 239.92 499.679 239.919 499.703 239.918C499.725 239.918 499.745 239.918 499.764 239.918C505.32 239.918 509.857 244.474 509.934 250.165C510.119 264.081 511.873 277.44 515.145 289.873C516.6 295.412 513.38 301.114 507.953 302.601C507.074 302.843 506.189 302.964 505.309 302.964C500.824 302.964 496.719 299.905 495.495 295.265C491.786 281.171 489.805 266.088 489.594 250.454ZM444.05 272.006C443.535 266.293 447.645 261.227 453.237 260.702C453.556 260.67 453.875 260.655 454.188 260.655C459.394 260.655 463.818 264.701 464.307 270.082C465.896 287.535 470.207 304.724 477.47 322.644C479.62 327.946 477.161 334.021 471.971 336.223C470.701 336.759 469.379 337.017 468.082 337.017C464.091 337.017 460.305 334.6 458.684 330.6C450.619 310.736 445.829 291.565 444.05 272.006ZM355.342 311.85C354.256 306.217 357.852 300.757 363.356 299.648C364.02 299.516 364.678 299.453 365.326 299.453C370.089 299.453 374.344 302.885 375.305 307.84C376.499 314.061 379.301 324.347 381.158 331.163L381.159 331.168L381.555 332.597C383.057 338.126 379.884 343.854 374.477 345.393C373.567 345.651 372.651 345.777 371.751 345.777C367.291 345.777 363.207 342.766 361.952 338.168L361.561 336.738L361.522 336.596C359.582 329.475 356.68 318.819 355.342 311.85Z" fill="url(#paint1_linear_3_30)"/>
    <path d="M38.2146 81H54.0759V76.6196H43.4428V54.859H38.2146V81Z" fill="white"/>
    <path d="M54.9019 81H60.2007L63.9452 67.3996C64.7224 64.6795 65.4643 61.6769 66.1708 58.8508H66.3121C67.0539 61.6415 67.7957 64.6795 68.5729 67.3996L72.3174 81H77.7929L69.4207 54.859H63.2741L54.9019 81ZM60.0947 74.2881H72.5294V70.261H60.0947V74.2881Z" fill="white"/>
    <path d="M80.8883 81H86.1165V71.7093H89.6138C95.2306 71.7093 99.6816 69.0599 99.6816 63.0899C99.6816 56.8726 95.2306 54.859 89.4725 54.859H80.8883V81ZM86.1165 67.5762V59.0274H89.0839C92.6871 59.0274 94.5947 60.0165 94.5947 63.0899C94.5947 66.0572 92.8637 67.5762 89.2605 67.5762H86.1165Z" fill="white"/>
    <path d="M104.45 81H109.678V71.1441H113.529C119.004 71.1441 123.35 68.6007 123.35 62.772C123.35 56.7666 119.004 54.859 113.529 54.859H104.45V81ZM109.678 67.011V59.0274H113.034C116.426 59.0274 118.263 59.9812 118.263 62.772C118.263 65.5627 116.426 67.011 113.034 67.011H109.678ZM118.651 81H124.48L116.214 66.5165L112.575 69.8018L118.651 81Z" fill="white"/>
    <path d="M124.691 81H129.99L133.734 67.3996C134.511 64.6795 135.253 61.6769 135.96 58.8508H136.101C136.843 61.6415 137.585 64.6795 138.362 67.3996L142.106 81H147.582L139.21 54.859H133.063L124.691 81ZM129.884 74.2881H142.318V70.261H129.884V74.2881Z" fill="white"/>
    <path d="M158.484 81.4946C164.49 81.4946 168.057 77.856 168.057 73.5816C168.057 69.8371 165.973 67.7882 162.829 66.4811L159.403 65.0681C157.177 64.185 155.305 63.4785 155.305 61.6062C155.305 59.9106 156.753 58.8861 159.049 58.8861C161.204 58.8861 162.935 59.6633 164.631 61.041L167.245 57.7557C165.125 55.6008 162.087 54.3998 159.049 54.3998C153.786 54.3998 150.006 57.6851 150.006 61.9595C150.006 65.7393 152.691 67.8942 155.305 68.9539L158.802 70.4376C161.134 71.4267 162.723 72.0626 162.723 74.0055C162.723 75.8071 161.31 76.9729 158.59 76.9729C156.294 76.9729 153.786 75.8425 151.949 74.1115L148.946 77.7147C151.49 80.1522 154.952 81.4946 158.484 81.4946Z" fill="white"/>
    <path d="M196.535 81.4946C202.541 81.4946 206.108 77.856 206.108 73.5816C206.108 69.8371 204.024 67.7882 200.88 66.4811L197.454 65.0681C195.228 64.185 193.356 63.4785 193.356 61.6062C193.356 59.9106 194.804 58.8861 197.1 58.8861C199.255 58.8861 200.986 59.6633 202.682 61.041L205.296 57.7557C203.176 55.6008 200.138 54.3998 197.1 54.3998C191.837 54.3998 188.057 57.6851 188.057 61.9595C188.057 65.7393 190.742 67.8942 193.356 68.9539L196.853 70.4376C199.185 71.4267 200.774 72.0626 200.774 74.0055C200.774 75.8071 199.361 76.9729 196.641 76.9729C194.345 76.9729 191.837 75.8425 190 74.1115L186.997 77.7147C189.541 80.1522 193.003 81.4946 196.535 81.4946Z" fill="white"/>
    <path d="M221.405 81.4946C224.797 81.4946 227.587 80.1875 229.742 77.6794L226.987 74.3941C225.609 75.9131 223.843 76.9729 221.617 76.9729C217.449 76.9729 214.799 73.5816 214.799 67.8588C214.799 62.2774 217.767 58.8861 221.688 58.8861C223.702 58.8861 225.185 59.7693 226.528 61.0763L229.283 57.7204C227.587 55.9541 224.938 54.3998 221.617 54.3998C214.976 54.3998 209.465 59.416 209.465 68.0355C209.465 76.7609 214.799 81.4946 221.405 81.4946Z" fill="white"/>
    <path d="M242.754 81.4946C249.677 81.4946 254.411 76.337 254.411 67.8235C254.411 59.3454 249.677 54.3998 242.754 54.3998C235.794 54.3998 231.061 59.31 231.061 67.8235C231.061 76.337 235.794 81.4946 242.754 81.4946ZM242.754 76.9729C238.832 76.9729 236.395 73.405 236.395 67.8235C236.395 62.2421 238.832 58.8861 242.754 58.8861C246.639 58.8861 249.112 62.2421 249.112 67.8235C249.112 73.405 246.639 76.9729 242.754 76.9729Z" fill="white"/>
    <path d="M259.552 81H264.78V71.1441H268.631C274.106 71.1441 278.451 68.6007 278.451 62.772C278.451 56.7666 274.106 54.859 268.631 54.859H259.552V81ZM264.78 67.011V59.0274H268.136C271.528 59.0274 273.364 59.9812 273.364 62.772C273.364 65.5627 271.528 67.011 268.136 67.011H264.78ZM273.753 81H279.582L271.316 66.5165L267.677 69.8018L273.753 81Z" fill="white"/>
    <path d="M283.632 81H300.058V76.6196H288.86V69.6605H298.009V65.2448H288.86V59.2041H299.669V54.859H283.632V81Z" fill="white"/>
    
<path d="M44.3663 131.824V134.5H57.9657V131.824H44.3663ZM44.8042 137.42V140.072H55.1923V137.42H44.8042ZM49.6212 128.345V138.855H52.4919V128.345H49.6212ZM47.9669 139.536L45.3394 140.291C47.5533 145.764 51.2268 149.511 57.0656 151.214C57.4548 150.46 58.282 149.292 58.9145 148.708C53.4163 147.346 49.7185 144.037 47.9669 139.536ZM54.9004 137.42V137.882C53.4163 143.551 48.8427 147.127 42.9553 148.513C43.5148 149.122 44.2203 150.362 44.5123 151.141C50.9835 149.243 55.8735 145.302 57.8197 138.077L55.9465 137.323L55.4356 137.42H54.9004ZM35.6569 140.704L36.411 143.502C38.6735 142.918 41.5686 142.164 44.269 141.434L43.9041 138.758C40.9361 139.512 37.7977 140.266 35.6569 140.704ZM35.9731 132.968V135.693H44.05V132.968H35.9731ZM38.7709 128.345V147.954C38.7709 148.294 38.6492 148.416 38.3086 148.416C37.9924 148.416 36.9706 148.416 36.0218 148.392C36.3624 149.146 36.7516 150.314 36.8246 151.068C38.5762 151.068 39.744 150.971 40.5711 150.533C41.3983 150.095 41.6416 149.365 41.6416 147.978V128.345H38.7709Z" fill="white"/>
<path d="M66.9914 138.563C66.8454 141.556 66.5292 144.621 65.6534 146.567C66.2129 146.883 67.186 147.565 67.5996 147.93C68.5971 145.716 69.0836 142.285 69.3269 138.904L66.9914 138.563ZM66.7725 133.527V136.203H75.8711V133.527H66.7725ZM70.0081 128.71V150.8H72.7328V128.71H70.0081ZM73.1707 139.025C73.633 141.337 74.0465 144.329 74.1439 146.3L76.382 145.862C76.2604 143.867 75.8225 140.947 75.3116 138.612L73.1707 139.025ZM76.7226 129.659V132.214H82.537V129.659H76.7226ZM76.1144 136.544V139.147H82.902V136.544H76.1144ZM72.9031 129.805C73.5113 130.876 74.1925 132.311 74.4601 133.211L76.4794 132.311C76.1874 131.411 75.4576 130.024 74.8007 129.002L72.9031 129.805ZM78.231 137.274V148.003C78.231 148.294 78.1337 148.367 77.8174 148.392C77.5011 148.392 76.4794 148.392 75.5062 148.343C75.8712 149.17 76.2117 150.362 76.2847 151.165C77.9147 151.165 79.0825 151.117 79.9339 150.679C80.8097 150.216 81.0044 149.414 81.0044 148.051V137.274H78.231ZM63.9747 128.345C63.1476 129.902 61.4446 131.849 59.8633 133.016C60.3255 133.552 61.031 134.598 61.3716 135.206C63.2692 133.746 65.3128 131.435 66.6022 129.319L63.9747 128.345ZM62.661 138.782V151.19H65.3371V136.617L64.9478 136.495L62.661 138.782ZM64.5343 133.479C63.4152 136.033 61.5176 138.539 59.5957 140.169C60.1066 140.801 60.8851 142.237 61.177 142.845C63.4152 140.777 65.7263 137.493 67.1374 134.379L64.5343 133.479Z" fill="white"/>
<path d="M85.4807 133.406V136.398H104.116V133.406H85.4807ZM102.924 133.406V133.99C102.51 142.967 102.024 146.81 101.172 147.638C100.832 147.954 100.54 148.051 100.053 148.051C99.3964 148.051 97.961 148.027 96.404 147.905C96.9636 148.757 97.3772 150.07 97.4258 150.922C98.9098 150.995 100.418 151.019 101.343 150.873C102.413 150.727 103.119 150.46 103.824 149.535C104.919 148.246 105.405 144.548 105.892 134.817C105.941 134.403 105.965 133.406 105.965 133.406H102.924ZM92.9494 128.394V133.406C92.9494 138.101 92.2683 144.84 84.7022 148.951C85.4321 149.462 86.5268 150.606 86.9891 151.311C95.2606 146.64 96.0391 138.928 96.0391 133.406V128.394H92.9494Z" fill="white"/>
<path d="M44.3663 131.824V134.5H57.9657V131.824H44.3663ZM44.8042 137.42V140.072H55.1923V137.42H44.8042ZM49.6212 128.345V138.855H52.4919V128.345H49.6212ZM47.9669 139.536L45.3394 140.291C47.5533 145.764 51.2268 149.511 57.0656 151.214C57.4548 150.46 58.282 149.292 58.9145 148.708C53.4163 147.346 49.7185 144.037 47.9669 139.536ZM54.9004 137.42V137.882C53.4163 143.551 48.8427 147.127 42.9553 148.513C43.5148 149.122 44.2203 150.362 44.5123 151.141C50.9835 149.243 55.8735 145.302 57.8197 138.077L55.9465 137.323L55.4356 137.42H54.9004ZM35.6569 140.704L36.411 143.502C38.6735 142.918 41.5686 142.164 44.269 141.434L43.9041 138.758C40.9361 139.512 37.7977 140.266 35.6569 140.704ZM35.9731 132.968V135.693H44.05V132.968H35.9731ZM38.7709 128.345V147.954C38.7709 148.294 38.6492 148.416 38.3086 148.416C37.9924 148.416 36.9706 148.416 36.0218 148.392C36.3624 149.146 36.7516 150.314 36.8246 151.068C38.5762 151.068 39.744 150.971 40.5711 150.533C41.3983 150.095 41.6416 149.365 41.6416 147.978V128.345H38.7709Z" fill="white"/>
<path d="M66.9914 138.563C66.8454 141.556 66.5292 144.621 65.6534 146.567C66.2129 146.883 67.186 147.565 67.5996 147.93C68.5971 145.716 69.0836 142.285 69.3269 138.904L66.9914 138.563ZM66.7725 133.527V136.203H75.8711V133.527H66.7725ZM70.0081 128.71V150.8H72.7328V128.71H70.0081ZM73.1707 139.025C73.633 141.337 74.0465 144.329 74.1439 146.3L76.382 145.862C76.2604 143.867 75.8225 140.947 75.3116 138.612L73.1707 139.025ZM76.7226 129.659V132.214H82.537V129.659H76.7226ZM76.1144 136.544V139.147H82.902V136.544H76.1144ZM72.9031 129.805C73.5113 130.876 74.1925 132.311 74.4601 133.211L76.4794 132.311C76.1874 131.411 75.4576 130.024 74.8007 129.002L72.9031 129.805ZM78.231 137.274V148.003C78.231 148.294 78.1337 148.367 77.8174 148.392C77.5011 148.392 76.4794 148.392 75.5062 148.343C75.8711 149.17 76.2117 150.362 76.2847 151.165C77.9147 151.165 79.0825 151.117 79.9339 150.679C80.8097 150.216 81.0044 149.414 81.0044 148.051V137.274H78.231ZM63.9747 128.345C63.1476 129.902 61.4446 131.849 59.8633 133.016C60.3255 133.552 61.031 134.598 61.3716 135.206C63.2692 133.746 65.3128 131.435 66.6022 129.319L63.9747 128.345ZM62.661 138.782V151.19H65.3371V136.617L64.9478 136.495L62.661 138.782ZM64.5343 133.479C63.4152 136.033 61.5176 138.539 59.5957 140.169C60.1066 140.801 60.8851 142.237 61.177 142.845C63.4152 140.777 65.7263 137.493 67.1374 134.379L64.5343 133.479Z" fill="white"/>
<path d="M85.4807 133.406V136.398H104.116V133.406H85.4807ZM102.924 133.406V133.99C102.51 142.967 102.024 146.81 101.172 147.638C100.832 147.954 100.54 148.051 100.053 148.051C99.3964 148.051 97.961 148.027 96.404 147.905C96.9636 148.757 97.3772 150.07 97.4258 150.922C98.9098 150.995 100.418 151.019 101.343 150.873C102.413 150.727 103.119 150.46 103.824 149.535C104.919 148.246 105.405 144.548 105.892 134.817C105.941 134.403 105.965 133.406 105.965 133.406H102.924ZM92.9494 128.394V133.406C92.9494 138.101 92.2683 144.84 84.7022 148.951C85.4321 149.462 86.5268 150.606 86.9891 151.311C95.2606 146.64 96.0391 138.928 96.0391 133.406V128.394H92.9494Z" fill="white"/>

    <text fill="white" opacity="0" xml:space="preserve" style="white-space: pre" font-family="sans-serif" font-size="30" font-weight="bold" letter-spacing="0em"><tspan x="513" y="181">4.26</tspan>
    <animate attributeName="opacity" from="0" to="1" dur="1" begin="0.2s" fill="freeze"/>
    </text>
    <text fill="white" opacity="0" xml:space="preserve" style="white-space: pre" font-family="sans-serif" font-size="30" font-weight="bold" letter-spacing="0em"><tspan x="513" y="258">3.48</tspan>
    <animate attributeName="opacity" from="0" to="1" dur="1" begin="0.8s" fill="freeze"/>
    </text>
    <text fill="white" opacity="0" xml:space="preserve" style="white-space: pre" font-family="sans-serif" font-size="30" font-weight="bold" letter-spacing="0em"><tspan x="513" y="336">4.05</tspan>
    <animate attributeName="opacity" from="0" to="1" dur="1" begin="1.4s" fill="freeze"/>
    </text>
    
<path d="M52.9541 207.294L51.0322 208.097C51.6891 209.046 52.4189 210.481 52.9298 211.479L54.876 210.627C54.4138 209.727 53.5623 208.194 52.9541 207.294ZM55.8248 206.2L53.9029 207.002C54.5598 207.927 55.3626 209.338 55.8492 210.36L57.7954 209.508C57.3575 208.657 56.4574 207.124 55.8248 206.2ZM42.4444 208.365H38.8682C38.9655 209.095 39.0385 210.335 39.0385 210.895C39.0385 212.403 39.0385 221.332 39.0385 224.129C39.0385 226.246 40.2792 227.389 42.3714 227.778C43.4175 227.949 44.9015 228.046 46.4828 228.046C49.1589 228.046 52.8325 227.9 55.1436 227.56V224.008C53.1244 224.543 49.2076 224.835 46.6531 224.835C45.5827 224.835 44.5853 224.81 43.8554 224.689C42.7607 224.494 42.2741 224.227 42.2741 223.156C42.2741 221.332 42.2741 212.379 42.2741 210.895C42.2741 210.189 42.3471 209.095 42.4444 208.365ZM40.8387 215.833L40.8631 219.02C44.1717 218.242 48.94 216.807 51.8107 215.712C52.6135 215.396 53.7083 214.933 54.6327 214.544L53.3434 211.479C52.3702 212.038 51.5431 212.427 50.6916 212.792C48.1372 213.839 43.9771 215.152 40.8387 215.833Z" fill="white"/>
<path d="M77.0632 208.34L75.0197 209.168C75.9198 210.433 76.455 211.479 77.1849 213.011L79.2771 212.087C78.7419 210.968 77.7444 209.362 77.0632 208.34ZM80.4205 207.148L78.3526 208.024C79.2527 209.241 79.8366 210.189 80.6151 211.722L82.7073 210.798C82.1235 209.727 81.1747 208.121 80.4205 207.148ZM66.5048 207.854L64.7289 210.53C66.3345 211.43 68.889 213.084 70.227 214.033L72.0516 211.333C70.7866 210.457 68.1105 208.73 66.5048 207.854ZM62.0042 225.127L63.8288 228.338C65.9696 227.949 69.4729 226.732 71.93 225.321C75.9198 223.035 79.3501 219.945 81.6126 216.588L79.7393 213.279C77.7931 216.758 74.4115 220.091 70.2757 222.402C67.6239 223.862 64.7046 224.665 62.0042 225.127ZM62.7583 213.401L60.9824 216.101C62.6367 216.953 65.1425 218.607 66.5292 219.556L68.3051 216.831C67.0644 215.955 64.3883 214.276 62.7583 213.401Z" fill="white"/>
<path d="M97.6934 207.148H94.2145C94.3118 207.732 94.3361 208.608 94.3361 209.386C94.3361 210.238 94.3361 211.357 94.3361 212.087H97.5231C97.5231 211.357 97.5231 210.116 97.5231 209.386C97.5231 208.632 97.5961 207.708 97.6934 207.148ZM104.481 212.355L102.462 210.408C101.902 210.554 101.197 210.627 100.442 210.627C99.0071 210.627 91.2222 210.627 90.1274 210.627C89.3002 210.627 87.9379 210.603 87.0134 210.481V213.668C87.7919 213.595 89.3246 213.547 90.2004 213.547C91.2222 213.547 97.6934 213.547 99.0071 213.547C98.2773 214.544 96.769 215.979 94.8957 217.171C92.8035 218.534 89.6895 220.212 84.9942 221.259L86.8674 224.129C90.6383 222.986 94.3605 221.38 96.9879 219.507C99.2018 217.95 101.245 215.931 102.608 214.374C103.119 213.79 103.873 212.987 104.481 212.355ZM97.4745 217.658L94.3118 218.972C94.3118 220.431 94.3118 223.424 94.3118 225.297C94.3118 226.246 94.2145 227.706 94.1415 228.387H97.6204C97.5474 227.633 97.4745 226.246 97.4745 225.297C97.4745 223.326 97.4745 219.41 97.4745 217.658ZM104.846 224.348L106.865 221.672C104.53 220.091 103.265 219.361 101.026 218.169L99.0315 220.48C101.124 221.672 102.729 222.694 104.846 224.348Z" fill="white"/>
<path d="M128.249 210.53L126.279 209.046C125.768 209.216 124.819 209.338 123.749 209.338C122.678 209.338 116.45 209.338 115.161 209.338C114.455 209.338 112.947 209.265 112.29 209.168V212.646C112.825 212.598 114.164 212.476 115.161 212.476C116.207 212.476 122.411 212.476 123.433 212.476C122.873 214.203 121.389 216.612 119.783 218.437C117.496 220.967 113.75 223.935 109.809 225.394L112.339 228.022C116.11 226.246 119.783 223.229 122.508 220.091C124.6 217.658 126.401 214.349 127.398 212.038C127.617 211.527 128.055 210.798 128.249 210.53ZM122.824 218.072L120.537 220.334C123.141 222.694 125.792 225.589 127.593 228.095L130.366 225.686C128.785 223.74 125.33 220.115 122.824 218.072Z" fill="white"/>
<path d="M134.137 211.406V214.398H152.772V211.406H134.137ZM151.58 211.406V211.99C151.167 220.967 150.68 224.81 149.828 225.638C149.488 225.954 149.196 226.051 148.709 226.051C148.053 226.051 146.617 226.027 145.06 225.905C145.62 226.757 146.033 228.07 146.082 228.922C147.566 228.995 149.074 229.019 149.999 228.873C151.069 228.727 151.775 228.46 152.48 227.535C153.575 226.246 154.062 222.548 154.548 212.817C154.597 212.403 154.621 211.406 154.621 211.406H151.58ZM141.606 206.394V211.406C141.606 216.101 140.924 222.84 133.358 226.951C134.088 227.462 135.183 228.606 135.645 229.311C143.917 224.64 144.695 216.928 144.695 211.406V206.394H141.606Z" fill="white"/>

    
<path d="M35.8272 292.885V295.098H50.0104V292.885H35.8272ZM41.5686 291.449V294.125H44.2203V291.449H41.5686ZM40.0602 297.969H45.753V299.453H40.0602V297.969ZM37.5544 296.096V301.326H48.4048V296.096H37.5544ZM40.0116 289.26H45.899V290.233H40.0116V289.26ZM40.0116 286.778H45.899V287.727H40.0116V286.778ZM37.4085 285.148V291.839H48.5994V285.148H37.4085ZM41.5686 300.086V304.635C41.5686 304.903 41.4956 304.951 41.2037 304.951C40.8874 304.976 39.9143 304.976 39.0141 304.927C39.3791 305.535 39.8899 306.484 40.0602 307.165C41.3983 307.165 42.3714 307.141 43.1986 306.776C44.0014 306.411 44.2203 305.827 44.2203 304.708V300.086H41.5686ZM38.0653 301.691C37.5301 302.956 36.5813 304.294 35.5352 305.17C36.1191 305.511 37.1409 306.168 37.6274 306.581C38.6735 305.535 39.817 303.905 40.4981 302.324L38.0653 301.691ZM44.9745 302.762C45.8746 303.832 46.9451 305.316 47.4316 306.265L49.6941 305.073C49.1589 304.149 48.0398 302.713 47.1397 301.691L44.9745 302.762ZM54.9733 284.735C53.7083 286.584 51.2511 288.481 49.1833 289.552C49.9131 290.087 50.7646 290.987 51.2511 291.62C53.5866 290.233 56.0681 288.141 57.7467 285.854L54.9733 284.735ZM55.4112 291.522C54.0489 293.42 51.4458 295.366 49.2806 296.485C50.0347 297.045 50.8862 297.921 51.3728 298.553C53.7569 297.118 56.36 295.001 58.136 292.666L55.4112 291.522ZM55.9221 298.139C54.4381 301.059 51.4944 303.419 48.4048 304.757C49.1346 305.414 50.0104 306.435 50.4483 307.19C53.9516 305.389 56.9196 302.713 58.8172 299.137L55.9221 298.139Z" fill="white"/>
<path d="M68.816 287.216V288.652H73.8762V287.216H68.816ZM63.0259 295.585V297.361H80.3718V295.585H63.0259ZM65.3857 303.321V304.489H77.6714V303.321H65.3857ZM65.3857 305.219V306.654H77.6714V305.219H65.3857ZM60.4228 298.626V300.499H82.5857V298.626H60.4228ZM60.0336 291.133L60.4472 293.152C62.2231 292.933 64.3396 292.666 66.5292 292.374L66.4562 290.646C64.0477 290.841 61.7122 291.036 60.0336 291.133ZM66.9914 292.763L67.5023 294.758C69.4729 294.49 71.93 294.15 74.3628 293.76L74.2898 292.057C71.5651 292.325 68.8647 292.617 66.9914 292.763ZM66.0669 289.698C65.3128 292.349 63.1232 294.004 60.1552 294.928C60.5688 295.342 61.2257 296.242 61.4689 296.68C64.7289 295.439 67.2104 293.347 68.2321 290.014L66.0669 289.698ZM80.3718 285.002V285.319C80.0069 286.462 79.4717 288.043 78.8148 289.625C80.0556 290.549 80.5421 291.23 80.5421 291.741C80.5421 292.082 80.4448 292.301 80.2015 292.447C80.0556 292.52 79.8366 292.544 79.6177 292.568C79.2771 292.568 78.7905 292.544 78.2553 292.52C78.6202 293.031 78.8878 293.882 78.9122 294.466C79.496 294.515 80.1772 294.49 80.6394 294.442C81.0287 294.393 81.4909 294.247 81.8315 294.028C82.4884 293.639 82.8046 293.006 82.8046 292.057C82.8046 291.279 82.3181 290.257 81.1017 289.235C81.6612 288.092 82.2694 286.9 82.8046 285.659L81.0774 284.881L80.7368 285.002H80.3718ZM60.3012 287.97C61.4689 288.7 62.9529 289.795 63.6341 290.573L64.8505 288.7C64.1207 287.995 62.6367 286.973 61.4689 286.316L60.3012 287.97ZM63.3179 284.297C62.88 285.319 62.0285 286.778 61.3473 287.727L62.9043 288.384C63.6341 287.508 64.5099 286.243 65.3371 285.051L63.3179 284.297ZM65.556 286.17C64.5829 287.849 62.88 290.087 61.5176 291.498L63.0746 292.252C64.4613 290.938 66.1642 288.822 67.5266 287.022L65.556 286.17ZM75.7738 285.002V295.196H78.1093V286.973H81.0287V285.002H75.7738ZM68.0132 285.027V293.444H70.2514V285.027H68.0132ZM68.889 285.027V286.486H72.7328V289.406H68.889V290.89H74.971V285.027H68.889ZM69.9594 294.49V296.68H72.7328V294.49H69.9594ZM63.8531 301.18V307.214H66.5048V302.616H76.7956V307.19H79.5933V301.18H63.8531ZM66.0183 297.556C66.4075 298.018 66.7481 298.699 66.8698 299.161L69.3269 298.504C69.2053 298.042 68.7917 297.41 68.3781 296.923L66.0183 297.556ZM71.7354 291.498C72.7572 292.471 73.8519 293.858 74.2898 294.831L76.0171 293.858C75.5306 292.885 74.4115 291.547 73.341 290.622L71.7354 291.498ZM74.8007 296.631C74.5574 297.191 74.0709 298.018 73.6816 298.602L75.7495 299.234C76.1874 298.748 76.7956 298.091 77.4525 297.312L74.8007 296.631Z" fill="white"/>
<path d="M85.4807 289.406V292.398H104.116V289.406H85.4807ZM102.924 289.406V289.99C102.51 298.967 102.024 302.81 101.172 303.638C100.832 303.954 100.54 304.051 100.053 304.051C99.3964 304.051 97.961 304.027 96.404 303.905C96.9636 304.757 97.3772 306.07 97.4258 306.922C98.9098 306.995 100.418 307.019 101.343 306.873C102.413 306.727 103.119 306.46 103.824 305.535C104.919 304.246 105.405 300.548 105.892 290.817C105.941 290.403 105.965 289.406 105.965 289.406H102.924ZM92.9494 284.394V289.406C92.9494 294.101 92.2683 300.84 84.7022 304.951C85.4321 305.462 86.5268 306.606 86.9891 307.311C95.2606 302.64 96.0391 294.928 96.0391 289.406V284.394H92.9494Z" fill="white"/>

    <rect x="35" y="166" width="460" height="9" fill="white" fill-opacity="0.2"/>
    <rect x="35" y="166" width="0" height="9" fill="url(#eScore_bar_color)">
    <animate attributeName="width" from="0" to="391.91999999999996" dur="1s" fill="freeze" keySplines="0 0 0.58 1;" begin="0s"/>
    </rect>
    <rect x="35" y="244" width="460" height="9" fill="white" fill-opacity="0.2"/>
    <rect x="35" y="244" width="0" height="9" fill="url(#bScore_bar_color)">
    <animate attributeName="width" from="0" to="320.15999999999997" dur="1s" fill="freeze" keySplines="0 0 0.58 1;" begin="0.5s"/>
    </rect>
    <rect x="35" y="322" width="460" height="9" fill="white" fill-opacity="0.2"/>
    <rect x="35" y="322" width="0" height="9" fill="url(#iScore_bar_color)">
    <animate attributeName="width" from="0" to="372.6" dur="1s" fill="freeze" keySplines="0 0 0.58 1;" begin="1.0s"/>
    </rect>
    <defs>
    <linearGradient id="card-background" x1="149" y1="307.5" x2="585" y2="-14.5" gradientUnits="userSpaceOnUse">
    <stop stop-color="#020E27"/>
    <stop offset="1" stop-color="#0E5593"/>
    </linearGradient>
    <linearGradient id="paint1_linear_3_30" x1="643.93" y1="104.96" x2="243.861" y2="288.735" gradientUnits="userSpaceOnUse">
    <stop offset="0.125883" stop-color="#1688BF"/>
    <stop offset="0.550267" stop-color="#030E21"/>
    </linearGradient>
    <linearGradient id="eScore_bar_color" x1="39.5" y1="175" x2="335" y2="175" gradientUnits="userSpaceOnUse">
    <stop stop-color="#ff9a9d"/>
    <stop offset="1" stop-color="#ff5a5f"/>
    </linearGradient>
    <linearGradient id="bScore_bar_color" x1="38.045" y1="253" x2="238" y2="253" gradientUnits="userSpaceOnUse">
    <stop stop-color="#f2d088"/>
    <stop offset="1" stop-color="#f9c353"/>
    </linearGradient>
    <linearGradient id="iScore_bar_color" x1="38.78" y1="331" x2="287" y2="331" gradientUnits="userSpaceOnUse">
    <stop stop-color="#ff9a9d"/>
    <stop offset="1" stop-color="#ff5a5f"/>
    </linearGradient>
    </defs>
    </svg>
  